# xmcd
#
# Track frame offsets:
#	150
#	15498
#	37382
#	58442
#	80432
#	106319
#	129792
#	148330
#	162772
#	178942
#	198144
#	218271
#	236503
#	253300
#	275519
#
# Disc length: 3932 seconds
# Revision: 0
# Processed by: cddbd v1.5.2PL0 Copyright (c) Steve Scherf et al.
# Submitted via: dBpowerAMP V12.0
#
DISCID=d80f5a0f
DTITLE=Bernie Pearl - Sittin' On The Right Side Of The Blues
DYEAR=2011
DGENRE=Blues Acoustic
TTITLE0=Jailhouse Blues
TTITLE1=New Hollow Log Blues
TTITLE2=Outside Boogie
TTITLE3=Sittin' On The Right Side Of The Blues
TTITLE4=I Believe I'll Carry My Hook
TTITLE5=Shinin' Moon
TTITLE6=Shetland Pony Blues
TTITLE7=I Just Keeps On Wanting You
TTITLE8=I'm Up A Tree
TTITLE9=Flat-Footed
TTITLE10=Can't Be Satisfied
TTITLE11=Night Time Is The Right Time
TTITLE12=I Ain't Hurt
TTITLE13=You Can Break My Heart
TTITLE14=Shake 'em Down
EXTD=
EXTT0=
EXTT1=
EXTT2=
EXTT3=
EXTT4=
EXTT5=
EXTT6=
EXTT7=
EXTT8=
EXTT9=
EXTT10=
EXTT11=
EXTT12=
EXTT13=
EXTT14=
PLAYORDER=
